PathFileType	4	(X/Y/Z)	C:\Users\°ÂÌØÂü\Desktop\20210112\bx_n_5_1802-Unnamed.trc
DataRate	CameraRate	NumFrames	NumMarkers	Units	OrigDataRate	OrigDataStartFrame	OrigNumFrames
50.00	50.00	       6	0	mm	50.00	66	       523
Frame#	Time	
		

66	1.300	-643.74799	125.72212	1847.20203	-680.67249	146.63530	577.94055				-587.49194	-1.88835	1054.49878				-578.31152	-2.09825	803.86090	-576.91711	217.69720	815.05078	-687.71985	272.80624	743.27594	-718.88342	253.03709	642.50531	-668.52075	207.36583	534.14771	-762.56970	258.82251	502.61151	-517.73920	-72.78126	143.41333	-548.78046	-31.35092	164.05775	-791.14429	42.75245	175.72632	-716.56836	72.55505	215.02774	-597.34320	26.02335	166.28134	-711.62775	152.91757	216.38849	-795.15918	176.72887	184.44995	-767.96655	226.00737	205.71379	-591.69000	219.58653	174.23428	-882.66632	296.26215	144.70044	-556.24249	257.00562	164.54860	-661.02380	298.39035	157.57359	-624.62488	306.76425	158.27237	-528.28857	304.37302	146.40814	-675.10504	-67.12301	1537.01685				-753.34546	-41.27076	489.13062	-756.47491	-16.55310	207.58287	-875.85522	-78.73365	141.22168	-653.31805	-67.57388	871.62628	-675.30035	-58.34538	757.53705				-698.62360	-30.21703	614.45001	-708.34088	-28.22493	567.84039	-674.27917	171.62598	157.18719	-608.02692	-74.20602	159.32460	-649.34424	-66.99451	163.02379	-595.16986	246.92604	1066.07690	-677.97168	290.10828	872.28748	-687.21155	79.06541	572.85834	-721.21869	249.03014	576.40790	-660.33557	22.14556	517.04004	-671.80634	55.29796	156.14696	-700.28687	296.08466	1524.67566	-593.58081	114.15504	1350.92371	-791.72595	100.42405	1052.64990	
67	1.320	-642.32843	125.71848	1847.12109	-680.83081	146.53120	578.14752				-588.58771	-2.36440	1054.25085				-579.03442	-2.54735	803.85504	-577.56567	217.65054	815.43250	-688.55939	272.79083	743.47235	-719.64758	252.91716	642.55371	-668.60889	207.47044	534.28546	-763.15527	258.86362	502.83728	-517.69196	-72.77962	143.38748	-548.83209	-31.35938	164.13118	-791.30273	42.71239	175.68149	-716.25342	72.40507	214.92563	-597.44305	25.89388	166.10789	-711.49622	153.21672	216.34338	-795.23889	177.10754	184.66280	-767.95349	226.26839	205.74411	-591.72650	219.54350	174.15427	-882.72101	296.03165	144.44339	-556.18048	256.95215	164.59261	-661.01093	298.47919	157.49419	-624.78436	306.80328	158.40491	-528.27209	304.07950	146.39426	-675.01581	-67.11422	1537.04309				-753.74976	-41.09534	489.40256	-756.53906	-16.56935	207.67906	-875.85522	-78.73365	141.22168	-654.53888	-68.02007	872.14264	-675.91461	-58.49821	757.24017				-699.23932	-30.44729	614.86188	-708.64471	-28.00609	567.67816	-674.32690	171.51421	157.25987	-608.10071	-74.18228	159.28172	-649.34009	-66.96313	162.86172	-596.05017	247.00015	1065.87512	-678.67365	290.51230	872.61877	-686.95123	78.83897	572.92657	-721.94861	248.63432	576.20166	-660.33557	22.14556	517.04004	-671.80634	55.29796	156.14696	-700.17053	296.04156	1524.82068	-593.94067	113.96770	1350.95935	-792.44019	100.42682	1052.75427	
68	1.340	-640.63629	125.48914	1847.22754	-681.00732	146.56383	578.26245				-589.67371	-2.10608	1054.73596				-579.57855	-2.63371	804.08093	-578.57074	218.09174	815.89893	-689.09113	273.04752	743.84186	-720.13654	253.08058	642.72278	-668.77148	207.42659	534.84198	-763.28021	258.70111	502.93845	-517.76166	-72.93047	143.48900	-548.95239	-31.25232	164.14204	-790.58380	42.39072	175.56506	-716.56836	72.55505	215.02774	-597.41150	25.73492	166.31070	-711.30450	153.01173	216.25095	-795.11420	177.32014	184.72533	-767.82996	226.27885	205.45471	-591.74323	219.66130	174.34766	-882.69366	295.97900	144.46353	-556.28546	257.03131	164.64207	-661.06146	298.48688	157.43617	-624.78802	306.87805	158.44756	-528.12604	304.31985	146.39368	-674.83765	-67.19322	1536.91199				-754.28137	-40.82111	489.44507	-756.62476	-16.63471	207.50624	-875.86865	-78.72662	141.20197	-655.32538	-67.83898	872.26025	-677.37335	-57.83334	756.66559				-699.79620	-30.66338	614.98730	-708.78601	-28.16855	568.00085	-674.30310	171.62515	157.36316	-608.10071	-74.18228	159.28172	-649.41205	-66.98340	162.90865	-597.57208	247.23531	1065.99219	-680.06787	290.63040	872.57465	-687.13062	78.71734	572.92969	-721.85095	248.43413	576.09613	-660.31726	21.92173	517.06378	-671.80634	55.29796	156.14696	-700.00073	295.97455	1525.06653	-594.39661	113.97090	1350.68262	-794.05615	100.02876	1053.13562	
69	1.360	-638.71771	125.35986	1847.43530	-681.35083	146.73532	578.68604				-590.60852	-1.78349	1054.30310				-580.56262	-2.81742	804.87506	-579.84229	217.77109	816.14911	-689.93036	272.99072	743.97107	-720.75940	253.07195	642.99304	-668.85992	207.35304	535.07117	-763.35944	258.53668	502.98450	-517.78180	-72.86730	143.41080	-549.12927	-31.23079	164.04309	-790.55615	42.44159	175.44688	-716.66632	72.49505	215.15353	-597.52478	25.60299	166.44949	-711.11993	153.09911	216.60464	-795.30817	177.12755	184.76532	-767.79279	226.34761	205.54207	-591.74323	219.66130	174.34766	-882.61761	296.06616	144.54466	-556.29657	257.05151	164.84319	-661.10266	298.44342	157.34950	-624.71844	306.99716	158.49837	-528.24139	304.00241	146.24747	-674.53180	-67.27905	1537.04932				-754.67035	-40.80309	489.54233	-756.87756	-16.66786	207.38725	-875.85034	-78.68372	141.27127	-656.64709	-68.11934	872.56842	-678.22308	-57.71865	756.59912				-700.38831	-30.20936	614.77234	-709.01477	-28.24226	568.50989	-674.30310	171.62515	157.36316	-607.94873	-74.14561	159.17896	-649.64636	-67.08259	162.70094	-597.82611	247.15987	1066.80176	-680.72791	290.40332	872.51959	-687.14532	78.52538	572.72357	-722.28015	248.57878	576.77258	-660.62927	21.59466	517.03339	-671.74542	55.23483	156.26346	-699.79364	295.99069	1525.40991	-594.62390	113.83388	1350.81335	-794.86554	99.87218	1053.11902	
70	1.380	-636.46021	125.27978	1846.84717	-681.44885	146.74065	578.88049				-591.78821	-2.50311	1055.13904				-581.74023	-3.74973	804.82654	-580.29156	217.69704	816.37756	-690.66797	272.84305	744.20642	-721.08026	252.52386	642.88397	-668.60040	207.02972	535.28259	-763.17987	258.18762	502.87756	-517.78406	-72.71217	143.47168	-549.09045	-31.46126	164.29825	-791.30273	42.71239	175.68149	-716.32245	72.27951	215.40921	-597.89435	25.57598	166.49066	-710.95422	153.56905	216.45702	-795.25677	177.39812	184.72310	-767.88470	226.40222	205.65790	-591.84924	219.66862	174.35648	-882.56989	296.01828	144.57579	-556.44147	257.03192	164.77968	-661.06146	298.48688	157.43617	-624.69153	306.84879	158.43066	-528.16870	304.17886	146.32680	-674.25122	-67.23874	1537.09204				-755.19678	-40.66236	489.59085	-756.92883	-17.03506	207.56418	-875.93073	-78.79627	141.25227	-657.45300	-68.08069	872.42542	-679.24908	-58.14380	757.37067				-701.04279	-30.27778	614.82312	-709.59320	-27.92012	568.36206	-674.43451	171.63765	157.48080	-607.81622	-74.32829	159.31293	-649.58081	-67.41209	162.67285	-600.43433	246.64137	1066.49707	-681.50287	290.94986	872.87207	-687.14532	78.52538	572.72357	-722.30219	248.61292	577.07892	-660.61902	21.20981	517.53058	-671.74835	55.02621	156.68542	-699.47278	295.81601	1525.64673	-595.04358	113.96534	1350.80811	-795.98328	99.87296	1053.51575	
71	1.400	-633.98468	124.90854	1846.74695	-681.43951	145.96172	579.71960				-593.02649	-3.08131	1055.50574				-582.65204	-4.21977	805.12299	-581.57019	217.36230	817.36481	-691.37878	272.44144	744.06250	-721.15192	252.32152	643.04614	-668.39685	206.81122	535.54102	-762.81525	258.19849	502.74341	-517.81110	-72.93823	143.42752	-549.28113	-31.52576	164.31622	-791.20740	42.59773	175.79701	-716.31824	72.13393	215.67459	-597.83386	25.49912	166.66374	-710.78772	153.62523	216.66388	-795.07831	177.43604	184.36317	-767.74969	226.50989	205.60736	-591.87653	219.74524	174.37936	-882.74005	296.11758	144.50200	-556.28137	256.87866	164.57915	-661.14282	298.47659	157.46700	-624.54230	306.70346	158.37640	-528.20758	304.25073	146.41353	-673.82294	-67.36432	1537.11731				-755.57544	-40.42351	489.86734	-757.27985	-16.98140	207.27446	-875.93073	-78.79627	141.25227	-659.18091	-68.72938	872.93384	-680.72412	-58.50835	757.62506				-701.68433	-30.50769	615.17340	-710.21790	-27.86604	568.31238	-674.45471	171.69302	157.60182	-607.70203	-74.57832	159.21696	-649.52710	-67.36986	162.60310	-601.49518	246.53761	1066.56238	-683.21692	290.94290	872.83929	-687.31024	78.15146	573.27191	-722.27948	248.23267	576.99774	-660.80658	21.11770	517.90405	-671.84875	54.96113	157.32851	-699.13391	295.89600	1526.05518	-595.36652	113.84639	1350.78699	-797.45276	99.41613	1053.70056	
